{
.appVersion = "3151";
.formatVersion = 3;
DisplayStrings = (
ABCDEFGHIJKLMNOPQRSTUVWXYZabcdefghijklmnopqrstuvwxyz.,
tww
);
date = "2023-12-23 11:50:38 +0000";
familyName = "Seaweed Sans";
fontMaster = (
{
id = m01;
metricValues = (
{
over = 16;
pos = 500;
},
{
over = 16;
pos = 300;
},
{
over = 16;
pos = 500;
},
{
over = -16;
},
{
over = -16;
pos = -100;
}
);
name = Regular;
userData = {
GSCornerRadius = 35;
};
}
);
glyphs = (
{
glyphname = A;
lastChange = "2023-12-23 14:22:29 +0000";
layers = (
{
layerId = m01;
shapes = (
{
closed = 1;
nodes = (
(114,0,ls),
(134,0,o),
(150,16,o),
(150,36,cs),
(150,164,ls),
(150,184,o),
(166,200,o),
(186,200,cs),
(214,200,ls),
(234,200,o),
(250,184,o),
(250,164,cs),
(250,36,ls),
(250,16,o),
(266,0,o),
(286,0,cs),
(314,0,ls),
(334,0,o),
(350,16,o),
(350,36,cs),
(350,464,ls),
(350,484,o),
(334,500,o),
(314,500,cs),
(86,500,ls),
(66,500,o),
(50,484,o),
(50,464,cs),
(50,36,ls),
(50,16,o),
(66,0,o),
(86,0,cs)
);
},
{
closed = 1;
nodes = (
(150,364,ls),
(150,384,o),
(166,400,o),
(186,400,cs),
(214,400,ls),
(234,400,o),
(250,384,o),
(250,364,cs),
(250,336,ls),
(250,316,o),
(234,300,o),
(214,300,cs),
(186,300,ls),
(166,300,o),
(150,316,o),
(150,336,cs)
);
}
);
width = 400;
}
);
unicode = 65;
},
{
glyphname = B;
lastChange = "2023-12-23 14:24:01 +0000";
layers = (
{
layerId = m01;
shapes = (
{
closed = 1;
nodes = (
(50,10,ls),
(50,4,o),
(54,0,o),
(60,0,cs),
(314,0,ls),
(334,0,o),
(350,16,o),
(350,36,cs),
(350,464,ls),
(350,484,o),
(334,500,o),
(314,500,cs),
(60,500,ls),
(54,500,o),
(50,496,o),
(50,490,cs)
);
},
{
closed = 1;
nodes = (
(150,164,ls),
(150,184,o),
(166,200,o),
(186,200,cs),
(214,200,ls),
(234,200,o),
(250,184,o),
(250,164,cs),
(250,136,ls),
(250,116,o),
(234,100,o),
(214,100,cs),
(186,100,ls),
(166,100,o),
(150,116,o),
(150,136,cs)
);
},
{
closed = 1;
nodes = (
(150,364,ls),
(150,384,o),
(166,400,o),
(186,400,cs),
(214,400,ls),
(234,400,o),
(250,384,o),
(250,364,cs),
(250,336,ls),
(250,316,o),
(234,300,o),
(214,300,cs),
(186,300,ls),
(166,300,o),
(150,316,o),
(150,336,cs)
);
}
);
width = 400;
}
);
unicode = 66;
},
{
glyphname = C;
lastChange = "2023-12-23 16:03:06 +0000";
layers = (
{
layerId = m01;
shapes = (
{
closed = 1;
nodes = (
(50,36,ls),
(50,16,o),
(66,0,o),
(86,0,cs),
(314,0,ls),
(334,0,o),
(350,16,o),
(350,36,cs),
(350,64,ls),
(350,84,o),
(334,100,o),
(314,100,cs),
(186,100,ls),
(166,100,o),
(150,116,o),
(150,136,cs),
(150,364,ls),
(150,384,o),
(166,400,o),
(186,400,cs),
(314,400,ls),
(334,400,o),
(350,416,o),
(350,436,cs),
(350,464,ls),
(350,484,o),
(334,500,o),
(314,500,cs),
(86,500,ls),
(66,500,o),
(50,484,o),
(50,464,cs)
);
}
);
width = 375;
}
);
unicode = 67;
},
{
glyphname = D;
lastChange = "2023-12-23 14:23:29 +0000";
layers = (
{
layerId = m01;
shapes = (
{
closed = 1;
nodes = (
(50,10,ls),
(50,4,o),
(54,0,o),
(60,0,cs),
(314,0,ls),
(334,0,o),
(350,16,o),
(350,36,cs),
(350,464,ls),
(350,484,o),
(334,500,o),
(314,500,cs),
(60,500,ls),
(54,500,o),
(50,496,o),
(50,490,cs)
);
},
{
closed = 1;
nodes = (
(150,364,ls),
(150,384,o),
(166,400,o),
(186,400,cs),
(214,400,ls),
(234,400,o),
(250,384,o),
(250,364,cs),
(250,136,ls),
(250,116,o),
(234,100,o),
(214,100,cs),
(186,100,ls),
(166,100,o),
(150,116,o),
(150,136,cs)
);
}
);
width = 400;
}
);
unicode = 68;
},
{
glyphname = E;
lastChange = "2023-12-23 16:03:28 +0000";
layers = (
{
layerId = m01;
shapes = (
{
closed = 1;
nodes = (
(50,36,ls),
(50,16,o),
(66,0,o),
(86,0,cs),
(314,0,ls),
(334,0,o),
(350,16,o),
(350,36,cs),
(350,64,ls),
(350,84,o),
(334,100,o),
(314,100,cs),
(186,100,ls),
(166,100,o),
(150,116,o),
(150,136,cs),
(150,164,ls),
(150,184,o),
(166,200,o),
(186,200,cs),
(214,200,ls),
(234,200,o),
(250,216,o),
(250,236,cs),
(250,264,ls),
(250,284,o),
(234,300,o),
(214,300,cs),
(186,300,ls),
(166,300,o),
(150,316,o),
(150,336,cs),
(150,364,ls),
(150,384,o),
(166,400,o),
(186,400,cs),
(314,400,ls),
(334,400,o),
(350,416,o),
(350,436,cs),
(350,464,ls),
(350,484,o),
(334,500,o),
(314,500,cs),
(86,500,ls),
(66,500,o),
(50,484,o),
(50,464,cs)
);
}
);
width = 375;
}
);
unicode = 69;
},
{
glyphname = F;
kernRight = f;
lastChange = "2023-12-23 16:05:24 +0000";
layers = (
{
layerId = m01;
shapes = (
{
closed = 1;
nodes = (
(50,36,ls),
(50,16,o),
(66,0,o),
(86,0,cs),
(114,0,ls),
(134,0,o),
(150,16,o),
(150,36,cs),
(150,164,ls),
(150,184,o),
(166,200,o),
(186,200,cs),
(214,200,ls),
(234,200,o),
(250,216,o),
(250,236,cs),
(250,264,ls),
(250,284,o),
(234,300,o),
(214,300,cs),
(186,300,ls),
(166,300,o),
(150,316,o),
(150,336,cs),
(150,364,ls),
(150,384,o),
(166,400,o),
(186,400,cs),
(314,400,ls),
(334,400,o),
(350,416,o),
(350,436,cs),
(350,464,ls),
(350,484,o),
(334,500,o),
(314,500,cs),
(86,500,ls),
(66,500,o),
(50,484,o),
(50,464,cs)
);
}
);
width = 350;
}
);
unicode = 70;
},
{
glyphname = G;
lastChange = "2023-12-23 14:24:36 +0000";
layers = (
{
layerId = m01;
shapes = (
{
closed = 1;
nodes = (
(50,36,ls),
(50,16,o),
(66,0,o),
(86,0,cs),
(314,0,ls),
(334,0,o),
(350,16,o),
(350,36,cs),
(350,264,ls),
(350,284,o),
(334,300,o),
(314,300,cs),
(186,300,ls),
(166,300,o),
(150,316,o),
(150,336,cs),
(150,364,ls),
(150,384,o),
(166,400,o),
(186,400,cs),
(314,400,ls),
(334,400,o),
(350,416,o),
(350,436,cs),
(350,464,ls),
(350,484,o),
(334,500,o),
(314,500,cs),
(86,500,ls),
(66,500,o),
(50,484,o),
(50,464,cs)
);
},
{
closed = 1;
nodes = (
(150,164,ls),
(150,184,o),
(166,200,o),
(186,200,cs),
(214,200,ls),
(234,200,o),
(250,184,o),
(250,164,cs),
(250,136,ls),
(250,116,o),
(234,100,o),
(214,100,cs),
(186,100,ls),
(166,100,o),
(150,116,o),
(150,136,cs)
);
}
);
width = 400;
}
);
unicode = 71;
},
{
glyphname = H;
lastChange = "2023-12-23 14:24:42 +0000";
layers = (
{
layerId = m01;
shapes = (
{
closed = 1;
nodes = (
(50,36,ls),
(50,16,o),
(66,0,o),
(86,0,cs),
(114,0,ls),
(134,0,o),
(150,16,o),
(150,36,cs),
(150,164,ls),
(150,184,o),
(166,200,o),
(186,200,cs),
(214,200,ls),
(234,200,o),
(250,184,o),
(250,164,cs),
(250,36,ls),
(250,16,o),
(266,0,o),
(286,0,cs),
(314,0,ls),
(334,0,o),
(350,16,o),
(350,36,cs),
(350,464,ls),
(350,484,o),
(334,500,o),
(314,500,cs),
(286,500,ls),
(266,500,o),
(250,484,o),
(250,464,cs),
(250,336,ls),
(250,316,o),
(234,300,o),
(214,300,cs),
(186,300,ls),
(166,300,o),
(150,316,o),
(150,336,cs),
(150,464,ls),
(150,484,o),
(134,500,o),
(114,500,cs),
(86,500,ls),
(66,500,o),
(50,484,o),
(50,464,cs)
);
}
);
width = 400;
}
);
unicode = 72;
},
{
glyphname = I;
lastChange = "2023-12-23 14:25:22 +0000";
layers = (
{
layerId = m01;
shapes = (
{
closed = 1;
nodes = (
(50,36,ls),
(50,16,o),
(66,0,o),
(86,0,cs),
(114,0,ls),
(134,0,o),
(150,16,o),
(150,36,cs),
(150,464,ls),
(150,484,o),
(134,500,o),
(114,500,cs),
(86,500,ls),
(66,500,o),
(50,484,o),
(50,464,cs)
);
}
);
width = 200;
}
);
unicode = 73;
},
{
glyphname = J;
lastChange = "2023-12-23 14:35:01 +0000";
layers = (
{
layerId = m01;
shapes = (
{
closed = 1;
nodes = (
(150,125,ls),
(150,111,o),
(138,100,o),
(124,100,cs),
(75,100,ls),
(61,100,o),
(50,88,o),
(50,74,cs),
(50,25,ls),
(50,11,o),
(61,0,o),
(75,0,cs),
(225,0,ls),
(239,0,o),
(250,11,o),
(250,25,cs),
(250,475,ls),
(250,489,o),
(238,500,o),
(224,500,cs),
(175,500,ls),
(161,500,o),
(150,489,o),
(150,475,cs)
);
}
);
width = 300;
}
);
unicode = 74;
},
{
glyphname = K;
lastChange = "2023-12-23 14:25:38 +0000";
layers = (
{
layerId = m01;
shapes = (
{
closed = 1;
nodes = (
(50,36,ls),
(50,16,o),
(66,0,o),
(86,0,cs),
(114,0,ls),
(134,0,o),
(150,16,o),
(150,36,cs),
(150,64,ls),
(150,84,o),
(166,100,o),
(186,100,cs),
(214,100,ls),
(234,100,o),
(250,84,o),
(250,64,cs),
(250,36,ls),
(250,16,o),
(266,0,o),
(286,0,cs),
(314,0,ls),
(334,0,o),
(350,16,o),
(350,36,cs),
(350,164,ls),
(350,184,o),
(334,200,o),
(314,200,cs),
(186,200,ls),
(166,200,o),
(150,216,o),
(150,236,cs),
(150,264,ls),
(150,284,o),
(166,300,o),
(186,300,cs),
(314,300,ls),
(334,300,o),
(350,316,o),
(350,336,cs),
(350,464,ls),
(350,484,o),
(334,500,o),
(314,500,cs),
(286,500,ls),
(266,500,o),
(250,484,o),
(250,464,cs),
(250,436,ls),
(250,416,o),
(234,400,o),
(214,400,cs),
(186,400,ls),
(166,400,o),
(150,416,o),
(150,436,cs),
(150,464,ls),
(150,484,o),
(134,500,o),
(114,500,cs),
(86,500,ls),
(66,500,o),
(50,484,o),
(50,464,cs)
);
}
);
width = 400;
}
);
unicode = 75;
},
{
glyphname = L;
lastChange = "2023-12-23 16:55:37 +0000";
layers = (
{
layerId = m01;
shapes = (
{
closed = 1;
nodes = (
(150,136,ls),
(150,116,o),
(166,100,o),
(186,100,cs),
(314,100,ls),
(334,100,o),
(350,84,o),
(350,64,cs),
(350,36,ls),
(350,16,o),
(334,0,o),
(314,0,cs),
(86,0,ls),
(66,0,o),
(50,16,o),
(50,36,cs),
(50,464,ls),
(50,484,o),
(66,500,o),
(86,500,cs),
(114,500,ls),
(134,500,o),
(150,484,o),
(150,464,cs)
);
}
);
width = 370;
}
);
unicode = 76;
},
{
glyphname = M;
lastChange = "2023-12-23 16:39:00 +0000";
layers = (
{
layerId = m01;
shapes = (
{
closed = 1;
nodes = (
(50,36,ls),
(50,16,o),
(66,0,o),
(86,0,cs),
(114,0,ls),
(134,0,o),
(150,16,o),
(150,36,cs),
(150,264,ls),
(150,284,o),
(166,300,o),
(186,300,cs),
(214,300,ls),
(234,300,o),
(250,284,o),
(250,264,cs),
(250,136,ls),
(250,116,o),
(266,100,o),
(286,100,cs),
(314,100,ls),
(334,100,o),
(350,116,o),
(350,136,cs),
(350,264,ls),
(350,284,o),
(366,300,o),
(386,300,cs),
(414,300,ls),
(434,300,o),
(450,284,o),
(450,264,cs),
(450,36,ls),
(450,16,o),
(466,0,o),
(486,0,cs),
(514,0,ls),
(534,0,o),
(550,16,o),
(550,36,cs),
(550,464,ls),
(550,484,o),
(534,500,o),
(514,500,cs),
(386,500,ls),
(366,500,o),
(350,484,o),
(350,464,cs),
(350,436,ls),
(350,416,o),
(334,400,o),
(314,400,cs),
(286,400,ls),
(266,400,o),
(250,416,o),
(250,436,cs),
(250,464,ls),
(250,484,o),
(234,500,o),
(214,500,cs),
(86,500,ls),
(66,500,o),
(50,484,o),
(50,464,cs)
);
}
);
width = 600;
}
);
unicode = 77;
},
{
glyphname = N;
lastChange = "2023-12-23 16:00:43 +0000";
layers = (
{
layerId = m01;
shapes = (
{
closed = 1;
nodes = (
(50,36,ls),
(50,16,o),
(66,0,o),
(86,0,cs),
(114,0,ls),
(134,0,o),
(150,16,o),
(150,36,cs),
(150,364,ls),
(150,384,o),
(165,400,o),
(185,400,cs),
(205,400,o),
(220,384,o),
(220,364,cs),
(220,36,ls),
(220,16,o),
(236,0,o),
(256,0,cs),
(454,0,ls),
(474,0,o),
(490,16,o),
(490,36,cs),
(490,464,ls),
(490,484,o),
(474,500,o),
(454,500,cs),
(426,500,ls),
(406,500,o),
(390,484,o),
(390,464,cs),
(390,136,ls),
(390,116,o),
(375,100,o),
(355,100,cs),
(335,100,o),
(320,116,o),
(320,136,cs),
(320,464,ls),
(320,484,o),
(304,500,o),
(284,500,cs),
(86,500,ls),
(66,500,o),
(50,484,o),
(50,464,cs)
);
}
);
width = 540;
}
);
unicode = 78;
},
{
glyphname = O;
lastChange = "2023-12-23 14:26:03 +0000";
layers = (
{
layerId = m01;
shapes = (
{
closed = 1;
nodes = (
(50,36,ls),
(50,16,o),
(66,0,o),
(86,0,cs),
(314,0,ls),
(334,0,o),
(350,16,o),
(350,36,cs),
(350,464,ls),
(350,484,o),
(334,500,o),
(314,500,cs),
(86,500,ls),
(66,500,o),
(50,484,o),
(50,464,cs)
);
},
{
closed = 1;
nodes = (
(150,364,ls),
(150,384,o),
(166,400,o),
(186,400,cs),
(214,400,ls),
(234,400,o),
(250,384,o),
(250,364,cs),
(250,136,ls),
(250,116,o),
(234,100,o),
(214,100,cs),
(186,100,ls),
(166,100,o),
(150,116,o),
(150,136,cs)
);
}
);
width = 400;
}
);
unicode = 79;
},
{
glyphname = P;
lastChange = "2023-12-23 14:26:10 +0000";
layers = (
{
layerId = m01;
shapes = (
{
closed = 1;
nodes = (
(50,36,ls),
(50,16,o),
(66,0,o),
(86,0,cs),
(114,0,ls),
(134,0,o),
(150,16,o),
(150,36,cs),
(150,164,ls),
(150,184,o),
(166,200,o),
(186,200,cs),
(314,200,ls),
(334,200,o),
(350,216,o),
(350,236,cs),
(350,464,ls),
(350,484,o),
(334,500,o),
(314,500,cs),
(86,500,ls),
(66,500,o),
(50,484,o),
(50,464,cs)
);
},
{
closed = 1;
nodes = (
(150,364,ls),
(150,384,o),
(166,400,o),
(186,400,cs),
(214,400,ls),
(234,400,o),
(250,384,o),
(250,364,cs),
(250,336,ls),
(250,316,o),
(234,300,o),
(214,300,cs),
(186,300,ls),
(166,300,o),
(150,316,o),
(150,336,cs)
);
}
);
width = 400;
}
);
unicode = 80;
},
{
glyphname = Q;
lastChange = "2023-12-23 14:26:16 +0000";
layers = (
{
layerId = m01;
shapes = (
{
closed = 1;
nodes = (
(50,36,ls),
(50,16,o),
(66,0,o),
(86,0,cs),
(314,0,ls),
(334,0,o),
(350,-16,o),
(350,-36,cs),
(350,-64,ls),
(350,-84,o),
(366,-100,o),
(386,-100,cs),
(414,-100,ls),
(434,-100,o),
(450,-84,o),
(450,-64,cs),
(450,64,ls),
(450,84,o),
(434,100,o),
(414,100,cs),
(386,100,ls),
(366,100,o),
(350,116,o),
(350,136,cs),
(350,464,ls),
(350,484,o),
(334,500,o),
(314,500,cs),
(86,500,ls),
(66,500,o),
(50,484,o),
(50,464,cs)
);
},
{
closed = 1;
nodes = (
(150,364,ls),
(150,384,o),
(166,400,o),
(186,400,cs),
(214,400,ls),
(234,400,o),
(250,384,o),
(250,364,cs),
(250,136,ls),
(250,116,o),
(234,100,o),
(214,100,cs),
(186,100,ls),
(166,100,o),
(150,116,o),
(150,136,cs)
);
}
);
width = 450;
}
);
unicode = 81;
},
{
glyphname = R;
lastChange = "2023-12-23 14:28:20 +0000";
layers = (
{
layerId = m01;
shapes = (
{
closed = 1;
nodes = (
(50,36,ls),
(50,16,o),
(66,0,o),
(86,0,cs),
(114,0,ls),
(134,0,o),
(150,16,o),
(150,36,cs),
(150,164,ls),
(150,184,o),
(166,200,o),
(186,200,cs),
(314,200,ls),
(334,200,o),
(350,184,o),
(350,164,cs),
(350,36,ls),
(350,16,o),
(366,0,o),
(386,0,cs),
(414,0,ls),
(434,0,o),
(450,16,o),
(450,36,cs),
(450,264,ls),
(450,284,o),
(434,300,o),
(414,300,cs),
(386,300,ls),
(366,300,o),
(350,316,o),
(350,336,cs),
(350,464,ls),
(350,484,o),
(334,500,o),
(314,500,cs),
(86,500,ls),
(66,500,o),
(50,484,o),
(50,464,cs)
);
},
{
closed = 1;
nodes = (
(150,364,ls),
(150,384,o),
(166,400,o),
(186,400,cs),
(214,400,ls),
(234,400,o),
(250,384,o),
(250,364,cs),
(250,336,ls),
(250,316,o),
(234,300,o),
(214,300,cs),
(186,300,ls),
(166,300,o),
(150,316,o),
(150,336,cs)
);
}
);
width = 500;
}
);
unicode = 82;
},
{
glyphname = S;
lastChange = "2023-12-23 14:28:29 +0000";
layers = (
{
layerId = m01;
shapes = (
{
closed = 1;
nodes = (
(50,36,ls),
(50,16,o),
(66,0,o),
(86,0,cs),
(314,0,ls),
(334,0,o),
(350,16,o),
(350,36,cs),
(350,264,ls),
(350,284,o),
(334,300,o),
(314,300,cs),
(186,300,ls),
(166,300,o),
(150,316,o),
(150,336,cs),
(150,364,ls),
(150,384,o),
(166,400,o),
(186,400,cs),
(314,400,ls),
(334,400,o),
(350,416,o),
(350,436,cs),
(350,464,ls),
(350,484,o),
(334,500,o),
(314,500,cs),
(86,500,ls),
(66,500,o),
(50,484,o),
(50,464,cs),
(50,236,ls),
(50,216,o),
(66,200,o),
(86,200,cs),
(214,200,ls),
(234,200,o),
(250,184,o),
(250,164,cs),
(250,136,ls),
(250,116,o),
(234,100,o),
(214,100,cs),
(86,100,ls),
(66,100,o),
(50,84,o),
(50,64,cs)
);
}
);
width = 400;
}
);
unicode = 83;
},
{
glyphname = T;
lastChange = "2023-12-23 16:55:47 +0000";
layers = (
{
layerId = m01;
shapes = (
{
closed = 1;
nodes = (
(46,500,ls),
(26,500,o),
(10,484,o),
(10,464,cs),
(10,436,ls),
(10,416,o),
(26,400,o),
(46,400,cs),
(74,400,ls),
(94,400,o),
(110,384,o),
(110,364,cs),
(110,36,ls),
(110,16,o),
(126,0,o),
(146,0,cs),
(174,0,ls),
(194,0,o),
(210,16,o),
(210,36,cs),
(210,364,ls),
(210,384,o),
(226,400,o),
(246,400,cs),
(274,400,ls),
(294,400,o),
(310,416,o),
(310,436,cs),
(310,464,ls),
(310,484,o),
(294,500,o),
(274,500,cs)
);
}
);
width = 320;
}
);
unicode = 84;
},
{
glyphname = U;
lastChange = "2023-12-23 14:28:42 +0000";
layers = (
{
layerId = m01;
shapes = (
{
closed = 1;
nodes = (
(50,36,ls),
(50,16,o),
(66,0,o),
(86,0,cs),
(314,0,ls),
(334,0,o),
(350,16,o),
(350,36,cs),
(350,464,ls),
(350,484,o),
(334,500,o),
(314,500,cs),
(286,500,ls),
(266,500,o),
(250,484,o),
(250,464,cs),
(250,136,ls),
(250,116,o),
(234,100,o),
(214,100,cs),
(186,100,ls),
(166,100,o),
(150,116,o),
(150,136,cs),
(150,464,ls),
(150,484,o),
(134,500,o),
(114,500,cs),
(86,500,ls),
(66,500,o),
(50,484,o),
(50,464,cs)
);
}
);
width = 400;
}
);
unicode = 85;
},
{
glyphname = V;
lastChange = "2023-12-23 14:34:37 +0000";
layers = (
{
layerId = m01;
shapes = (
{
closed = 1;
nodes = (
(60,36,ls),
(61,16,o),
(76,0,o),
(96,0,cs),
(304,0,ls),
(324,0,o),
(339,16,o),
(340,36,cs),
(360,464,ls),
(361,484,o),
(344,500,o),
(324,500,cs),
(296,500,ls),
(276,500,o),
(261,484,o),
(260,464,cs),
(240,136,ls),
(239,116,o),
(224,100,o),
(204,100,cs),
(196,100,ls),
(176,100,o),
(161,116,o),
(160,136,cs),
(140,464,ls),
(139,484,o),
(124,500,o),
(104,500,cs),
(76,500,ls),
(56,500,o),
(39,484,o),
(40,464,cs)
);
}
);
width = 400;
}
);
unicode = 86;
},
{
glyphname = W;
lastChange = "2023-12-23 14:33:58 +0000";
layers = (
{
layerId = m01;
shapes = (
{
closed = 1;
nodes = (
(550,464,ls),
(550,484,o),
(534,500,o),
(514,500,cs),
(486,500,ls),
(466,500,o),
(450,484,o),
(450,464,cs),
(450,236,ls),
(450,216,o),
(434,200,o),
(414,200,cs),
(386,200,ls),
(366,200,o),
(350,216,o),
(350,236,cs),
(350,364,ls),
(350,384,o),
(334,400,o),
(314,400,cs),
(286,400,ls),
(266,400,o),
(250,384,o),
(250,364,cs),
(250,236,ls),
(250,216,o),
(234,200,o),
(214,200,cs),
(186,200,ls),
(166,200,o),
(150,216,o),
(150,236,cs),
(150,464,ls),
(150,484,o),
(134,500,o),
(114,500,cs),
(86,500,ls),
(66,500,o),
(50,484,o),
(50,464,cs),
(50,25,ls),
(50,11,o),
(62,0,o),
(76,0,cs),
(214,0,ls),
(234,0,o),
(250,16,o),
(250,36,cs),
(250,64,ls),
(250,84,o),
(266,100,o),
(286,100,cs),
(314,100,ls),
(334,100,o),
(350,84,o),
(350,64,cs),
(350,36,ls),
(350,16,o),
(366,0,o),
(386,0,cs),
(525,0,ls),
(539,0,o),
(550,11,o),
(550,25,cs)
);
}
);
width = 600;
}
);
unicode = 87;
},
{
glyphname = X;
lastChange = "2023-12-23 14:30:25 +0000";
layers = (
{
layerId = m01;
shapes = (
{
closed = 1;
nodes = (
(50,336,ls),
(50,316,o),
(66,300,o),
(86,300,cs),
(114,300,ls),
(134,300,o),
(150,284,o),
(150,264,cs),
(150,236,ls),
(150,216,o),
(134,200,o),
(114,200,cs),
(86,200,ls),
(66,200,o),
(50,184,o),
(50,164,cs),
(50,36,ls),
(50,16,o),
(66,0,o),
(86,0,cs),
(114,0,ls),
(134,0,o),
(150,16,o),
(150,36,cs),
(150,64,ls),
(150,84,o),
(166,100,o),
(186,100,cs),
(214,100,ls),
(234,100,o),
(250,84,o),
(250,64,cs),
(250,36,ls),
(250,16,o),
(266,0,o),
(286,0,cs),
(314,0,ls),
(334,0,o),
(350,16,o),
(350,36,cs),
(350,164,ls),
(350,184,o),
(334,200,o),
(314,200,cs),
(286,200,ls),
(266,200,o),
(250,216,o),
(250,236,cs),
(250,264,ls),
(250,284,o),
(266,300,o),
(286,300,cs),
(314,300,ls),
(334,300,o),
(350,316,o),
(350,336,cs),
(350,464,ls),
(350,484,o),
(334,500,o),
(314,500,cs),
(286,500,ls),
(266,500,o),
(250,484,o),
(250,464,cs),
(250,436,ls),
(250,416,o),
(234,400,o),
(214,400,cs),
(186,400,ls),
(166,400,o),
(150,416,o),
(150,436,cs),
(150,464,ls),
(150,484,o),
(134,500,o),
(114,500,cs),
(86,500,ls),
(66,500,o),
(50,484,o),
(50,464,cs)
);
}
);
width = 400;
}
);
unicode = 88;
},
{
glyphname = Y;
kernLeft = Y;
kernRight = Y;
lastChange = "2023-12-23 16:56:05 +0000";
layers = (
{
layerId = m01;
shapes = (
{
closed = 1;
nodes = (
(20,286,ls),
(20,266,o),
(36,250,o),
(56,250,cs),
(84,250,ls),
(104,250,o),
(120,234,o),
(120,214,cs),
(120,36,ls),
(120,16,o),
(136,0,o),
(156,0,cs),
(184,0,ls),
(204,0,o),
(220,16,o),
(220,36,cs),
(220,214,ls),
(220,234,o),
(236,250,o),
(256,250,cs),
(284,250,ls),
(304,250,o),
(320,266,o),
(320,286,cs),
(320,464,ls),
(320,484,o),
(304,500,o),
(284,500,cs),
(256,500,ls),
(236,500,o),
(220,484,o),
(220,464,cs),
(220,436,ls),
(220,416,o),
(204,400,o),
(184,400,cs),
(156,400,ls),
(136,400,o),
(120,416,o),
(120,436,cs),
(120,464,ls),
(120,484,o),
(104,500,o),
(84,500,cs),
(56,500,ls),
(36,500,o),
(20,484,o),
(20,464,cs)
);
}
);
width = 340;
}
);
unicode = 89;
},
{
glyphname = Z;
lastChange = "2023-12-23 14:30:42 +0000";
layers = (
{
layerId = m01;
shapes = (
{
closed = 1;
nodes = (
(350,36,ls),
(350,16,o),
(334,0,o),
(314,0,cs),
(86,0,ls),
(66,0,o),
(50,16,o),
(50,36,cs),
(50,264,ls),
(50,284,o),
(66,300,o),
(86,300,cs),
(214,300,ls),
(234,300,o),
(250,316,o),
(250,336,cs),
(250,364,ls),
(250,384,o),
(234,400,o),
(214,400,cs),
(86,400,ls),
(66,400,o),
(50,416,o),
(50,436,cs),
(50,464,ls),
(50,484,o),
(66,500,o),
(86,500,cs),
(314,500,ls),
(334,500,o),
(350,484,o),
(350,464,cs),
(350,236,ls),
(350,216,o),
(334,200,o),
(314,200,cs),
(186,200,ls),
(166,200,o),
(150,184,o),
(150,164,cs),
(150,136,ls),
(150,116,o),
(166,100,o),
(186,100,cs),
(314,100,ls),
(334,100,o),
(350,84,o),
(350,64,cs)
);
}
);
width = 400;
}
);
unicode = 90;
},
{
glyphname = a;
lastChange = "2023-12-23 16:05:06 +0000";
layers = (
{
layerId = m01;
shapes = (
{
closed = 1;
nodes = (
(414,0,ls),
(434,0,o),
(450,16,o),
(450,36,cs),
(450,64,ls),
(450,84,o),
(434,100,o),
(414,100,cs),
(386,100,ls),
(366,100,o),
(350,116,o),
(350,136,cs),
(350,264,ls),
(350,284,o),
(334,300,o),
(314,300,cs),
(86,300,ls),
(66,300,o),
(50,284,o),
(50,264,cs),
(50,36,ls),
(50,16,o),
(66,0,o),
(86,0,cs)
);
},
{
closed = 1;
nodes = (
(150,164,ls),
(150,184,o),
(166,200,o),
(186,200,cs),
(214,200,ls),
(234,200,o),
(250,184,o),
(250,164,cs),
(250,136,ls),
(250,116,o),
(234,100,o),
(214,100,cs),
(186,100,ls),
(166,100,o),
(150,116,o),
(150,136,cs)
);
}
);
width = 475;
}
);
unicode = 97;
},
{
glyphname = b;
lastChange = "2023-12-23 15:42:12 +0000";
layers = (
{
layerId = m01;
shapes = (
{
closed = 1;
nodes = (
(50,36,ls),
(50,16,o),
(66,0,o),
(86,0,cs),
(314,0,ls),
(334,0,o),
(350,16,o),
(350,36,cs),
(350,264,ls),
(350,284,o),
(334,300,o),
(314,300,cs),
(186,300,ls),
(166,300,o),
(150,316,o),
(150,336,cs),
(150,464,ls),
(150,484,o),
(134,500,o),
(114,500,cs),
(86,500,ls),
(66,500,o),
(50,484,o),
(50,464,cs)
);
},
{
closed = 1;
nodes = (
(150,164,ls),
(150,184,o),
(166,200,o),
(186,200,cs),
(214,200,ls),
(234,200,o),
(250,184,o),
(250,164,cs),
(250,136,ls),
(250,116,o),
(234,100,o),
(214,100,cs),
(186,100,ls),
(166,100,o),
(150,116,o),
(150,136,cs)
);
}
);
width = 400;
}
);
unicode = 98;
},
{
glyphname = c;
lastChange = "2023-12-23 15:42:30 +0000";
layers = (
{
layerId = m01;
shapes = (
{
closed = 1;
nodes = (
(50,36,ls),
(50,16,o),
(66,0,o),
(86,0,cs),
(314,0,ls),
(334,0,o),
(350,16,o),
(350,36,cs),
(350,64,ls),
(350,84,o),
(334,100,o),
(314,100,cs),
(186,100,ls),
(166,100,o),
(150,116,o),
(150,136,cs),
(150,164,ls),
(150,184,o),
(166,200,o),
(186,200,cs),
(314,200,ls),
(334,200,o),
(350,216,o),
(350,236,cs),
(350,264,ls),
(350,284,o),
(334,300,o),
(314,300,cs),
(86,300,ls),
(66,300,o),
(50,284,o),
(50,264,cs)
);
}
);
width = 400;
}
);
unicode = 99;
},
{
glyphname = d;
lastChange = "2023-12-23 15:42:36 +0000";
layers = (
{
layerId = m01;
shapes = (
{
closed = 1;
nodes = (
(350,36,ls),
(350,16,o),
(334,0,o),
(314,0,cs),
(86,0,ls),
(66,0,o),
(50,16,o),
(50,36,cs),
(50,264,ls),
(50,284,o),
(66,300,o),
(86,300,cs),
(214,300,ls),
(234,300,o),
(250,316,o),
(250,336,cs),
(250,464,ls),
(250,484,o),
(266,500,o),
(286,500,cs),
(314,500,ls),
(334,500,o),
(350,484,o),
(350,464,cs)
);
},
{
closed = 1;
nodes = (
(214,100,ls),
(234,100,o),
(250,116,o),
(250,136,cs),
(250,164,ls),
(250,184,o),
(234,200,o),
(214,200,cs),
(186,200,ls),
(166,200,o),
(150,184,o),
(150,164,cs),
(150,136,ls),
(150,116,o),
(166,100,o),
(186,100,cs)
);
}
);
width = 400;
}
);
unicode = 100;
},
{
glyphname = e;
lastChange = "2023-12-23 16:16:28 +0000";
layers = (
{
layerId = m01;
shapes = (
{
closed = 1;
nodes = (
(50,-114,ls),
(50,-134,o),
(66,-150,o),
(86,-150,cs),
(214,-150,ls),
(234,-150,o),
(250,-134,o),
(250,-114,cs),
(250,-96,ls),
(250,-76,o),
(234,-60,o),
(214,-60,cs),
(186,-60,ls),
(137,-60,o),
(140,0,o),
(186,0,c),
(314,0,ls),
(334,0,o),
(350,16,o),
(350,36,cs),
(350,264,ls),
(350,284,o),
(334,300,o),
(314,300,cs),
(86,300,ls),
(66,300,o),
(50,284,o),
(50,264,cs)
);
},
{
closed = 1;
nodes = (
(150,164,ls),
(150,184,o),
(166,200,o),
(186,200,cs),
(214,200,ls),
(234,200,o),
(250,184,o),
(250,164,cs),
(250,136,ls),
(250,116,o),
(234,100,o),
(214,100,cs),
(186,100,ls),
(166,100,o),
(150,116,o),
(150,136,cs)
);
}
);
width = 400;
}
);
unicode = 101;
},
{
glyphname = f;
kernLeft = f;
kernRight = f;
lastChange = "2023-12-23 16:44:51 +0000";
layers = (
{
layerId = m01;
shapes = (
{
closed = 1;
nodes = (
(50,-64,ls),
(50,-84,o),
(66,-100,o),
(86,-100,cs),
(114,-100,ls),
(134,-100,o),
(150,-84,o),
(150,-64,cs),
(150,64,ls),
(150,84,o),
(166,100,o),
(186,100,cs),
(214,100,ls),
(234,100,o),
(250,116,o),
(250,136,cs),
(250,164,ls),
(250,184,o),
(234,200,o),
(214,200,cs),
(186,200,ls),
(166,200,o),
(150,216,o),
(150,236,cs),
(150,264,ls),
(150,284,o),
(166,300,o),
(186,300,cs),
(294,300,ls),
(314,300,o),
(330,316,o),
(330,336,cs),
(330,364,ls),
(330,384,o),
(314,400,o),
(294,400,cs),
(86,400,ls),
(66,400,o),
(50,384,o),
(50,364,cs)
);
}
);
width = 340;
}
);
unicode = 102;
},
{
glyphname = g;
lastChange = "2023-12-23 16:00:57 +0000";
layers = (
{
layerId = m01;
shapes = (
{
closed = 1;
nodes = (
(349,-114,ls),
(349,-134,o),
(333,-150,o),
(313,-150,cs),
(185,-150,ls),
(165,-150,o),
(149,-134,o),
(149,-114,cs),
(149,-86,ls),
(149,-66,o),
(165,-50,o),
(185,-50,cs),
(213,-50,ls),
(233,-50,o),
(249,-39,o),
(249,-25,cs),
(249,-11,o),
(233,0,o),
(213,0,cs),
(86,0,ls),
(66,0,o),
(50,16,o),
(50,36,cs),
(50,264,ls),
(50,284,o),
(66,300,o),
(86,300,cs),
(313,300,ls),
(333,300,o),
(349,284,o),
(349,264,cs)
);
},
{
closed = 1;
nodes = (
(249,164,ls),
(249,184,o),
(233,200,o),
(213,200,cs),
(185,200,ls),
(165,200,o),
(149,184,o),
(149,164,cs),
(149,136,ls),
(149,116,o),
(165,100,o),
(185,100,cs),
(213,100,ls),
(233,100,o),
(249,116,o),
(249,136,cs)
);
}
);
width = 399;
}
);
unicode = 103;
},
{
glyphname = h;
lastChange = "2023-12-23 15:43:26 +0000";
layers = (
{
layerId = m01;
shapes = (
{
closed = 1;
nodes = (
(50,36,ls),
(50,16,o),
(66,0,o),
(86,0,cs),
(114,0,ls),
(134,0,o),
(150,16,o),
(150,36,cs),
(150,164,ls),
(150,184,o),
(166,200,o),
(186,200,cs),
(214,200,ls),
(234,200,o),
(250,184,o),
(250,164,cs),
(250,36,ls),
(250,16,o),
(266,0,o),
(286,0,cs),
(314,0,ls),
(334,0,o),
(350,16,o),
(350,36,cs),
(350,264,ls),
(350,284,o),
(334,300,o),
(314,300,cs),
(186,300,ls),
(166,300,o),
(150,316,o),
(150,336,cs),
(150,464,ls),
(150,484,o),
(134,500,o),
(114,500,cs),
(86,500,ls),
(66,500,o),
(50,484,o),
(50,464,cs)
);
}
);
width = 400;
}
);
unicode = 104;
},
{
glyphname = i;
lastChange = "2023-12-23 15:43:30 +0000";
layers = (
{
layerId = m01;
shapes = (
{
closed = 1;
nodes = (
(50,36,ls),
(50,16,o),
(66,0,o),
(86,0,cs),
(114,0,ls),
(134,0,o),
(150,16,o),
(150,36,cs),
(150,264,ls),
(150,284,o),
(134,300,o),
(114,300,cs),
(86,300,ls),
(66,300,o),
(50,284,o),
(50,264,cs)
);
},
{
closed = 1;
nodes = (
(50,386,ls),
(50,366,o),
(66,350,o),
(86,350,cs),
(114,350,ls),
(134,350,o),
(150,366,o),
(150,386,cs),
(150,414,ls),
(150,434,o),
(134,450,o),
(114,450,cs),
(86,450,ls),
(66,450,o),
(50,434,o),
(50,414,cs)
);
}
);
width = 200;
}
);
unicode = 105;
},
{
glyphname = j;
lastChange = "2023-12-23 15:43:34 +0000";
layers = (
{
layerId = m01;
shapes = (
{
closed = 1;
nodes = (
(149,136,ls),
(149,116,o),
(133,100,o),
(113,100,cs),
(86,100,ls),
(66,100,o),
(50,84,o),
(50,64,cs),
(50,36,ls),
(50,16,o),
(66,0,o),
(86,0,cs),
(213,0,ls),
(233,0,o),
(249,16,o),
(249,36,cs),
(249,264,ls),
(249,284,o),
(233,300,o),
(213,300,cs),
(185,300,ls),
(165,300,o),
(149,284,o),
(149,264,cs)
);
},
{
closed = 1;
nodes = (
(213,350,ls),
(233,350,o),
(249,366,o),
(249,386,cs),
(249,414,ls),
(249,434,o),
(233,450,o),
(213,450,cs),
(185,450,ls),
(165,450,o),
(149,434,o),
(149,414,cs),
(149,386,ls),
(149,366,o),
(165,350,o),
(185,350,cs)
);
}
);
width = 299;
}
);
unicode = 106;
},
{
glyphname = k;
lastChange = "2023-12-23 15:45:15 +0000";
layers = (
{
layerId = m01;
shapes = (
{
closed = 1;
nodes = (
(50,36,ls),
(50,16,o),
(66,0,o),
(86,0,cs),
(114,0,ls),
(134,0,o),
(150,16,o),
(150,36,cs),
(150,164,ls),
(150,184,o),
(166,200,o),
(186,200,cs),
(214,200,ls),
(234,200,o),
(250,184,o),
(250,164,cs),
(250,36,ls),
(250,16,o),
(266,0,o),
(286,0,cs),
(314,0,ls),
(334,0,o),
(350,16,o),
(350,36,cs),
(350,264,ls),
(350,284,o),
(337,300,o),
(320,300,cs),
(303,300,o),
(285,316,o),
(290,336,cs),
(300,374,ls),
(305,394,o),
(284,410,o),
(264,410,cs),
(236,410,ls),
(216,410,o),
(205,394,o),
(200,374,cs),
(190,336,ls),
(185,316,o),
(181,310,o),
(170,310,cs),
(159,310,o),
(150,316,o),
(150,336,cs),
(150,464,ls),
(150,484,o),
(134,500,o),
(114,500,cs),
(86,500,ls),
(66,500,o),
(50,484,o),
(50,464,cs)
);
}
);
width = 400;
}
);
unicode = 107;
},
{
glyphname = l;
lastChange = "2023-12-23 16:05:15 +0000";
layers = (
{
layerId = m01;
shapes = (
{
closed = 1;
nodes = (
(151,136,ls),
(151,116,o),
(167,100,o),
(187,100,cs),
(214,100,ls),
(234,100,o),
(250,84,o),
(250,64,cs),
(250,41,ls),
(250,21,o),
(234,5,o),
(214,5,cs),
(86,5,ls),
(66,5,o),
(50,21,o),
(50,41,cs),
(50,464,ls),
(50,484,o),
(66,500,o),
(86,500,cs),
(115,500,ls),
(135,500,o),
(151,484,o),
(151,464,cs)
);
}
);
width = 265;
}
);
unicode = 108;
},
{
glyphname = m;
lastChange = "2023-12-23 15:45:57 +0000";
layers = (
{
layerId = m01;
shapes = (
{
closed = 1;
nodes = (
(50,36,ls),
(50,16,o),
(66,0,o),
(86,0,cs),
(114,0,ls),
(134,0,o),
(150,16,o),
(150,36,cs),
(150,164,ls),
(150,184,o),
(166,200,o),
(186,200,cs),
(214,200,ls),
(234,200,o),
(250,184,o),
(250,164,cs),
(250,36,ls),
(250,16,o),
(266,0,o),
(286,0,cs),
(314,0,ls),
(334,0,o),
(350,16,o),
(350,36,cs),
(350,164,ls),
(350,184,o),
(366,200,o),
(386,200,cs),
(414,200,ls),
(434,200,o),
(450,184,o),
(450,164,cs),
(450,36,ls),
(450,16,o),
(466,0,o),
(486,0,cs),
(514,0,ls),
(534,0,o),
(550,16,o),
(550,36,cs),
(550,264,ls),
(550,284,o),
(534,300,o),
(514,300,cs),
(186,300,ls),
(166,300,o),
(150,316,o),
(150,336,cs),
(150,342,ls),
(150,362,o),
(134,378,o),
(114,378,cs),
(86,378,ls),
(66,378,o),
(50,362,o),
(50,342,cs)
);
}
);
width = 600;
}
);
unicode = 109;
},
{
glyphname = n;
lastChange = "2023-12-23 15:46:01 +0000";
layers = (
{
layerId = m01;
shapes = (
{
closed = 1;
nodes = (
(50,36,ls),
(50,16,o),
(66,0,o),
(86,0,cs),
(114,0,ls),
(134,0,o),
(150,16,o),
(150,36,cs),
(150,164,ls),
(150,184,o),
(166,200,o),
(186,200,cs),
(214,200,ls),
(234,200,o),
(250,184,o),
(250,164,cs),
(250,36,ls),
(250,16,o),
(266,0,o),
(286,0,cs),
(314,0,ls),
(334,0,o),
(350,16,o),
(350,36,cs),
(350,264,ls),
(350,284,o),
(334,300,o),
(314,300,cs),
(186,300,ls),
(166,300,o),
(150,316,o),
(150,336,cs),
(150,344,ls),
(150,364,o),
(134,380,o),
(114,380,cs),
(86,380,ls),
(66,380,o),
(50,364,o),
(50,344,cs)
);
}
);
width = 400;
}
);
unicode = 110;
},
{
glyphname = o;
lastChange = "2023-12-23 15:45:38 +0000";
layers = (
{
layerId = m01;
shapes = (
{
closed = 1;
nodes = (
(50,36,ls),
(50,16,o),
(66,0,o),
(86,0,cs),
(314,0,ls),
(334,0,o),
(350,16,o),
(350,36,cs),
(350,264,ls),
(350,284,o),
(334,300,o),
(314,300,cs),
(86,300,ls),
(66,300,o),
(50,284,o),
(50,264,cs)
);
},
{
closed = 1;
nodes = (
(150,164,ls),
(150,184,o),
(166,200,o),
(186,200,cs),
(214,200,ls),
(234,200,o),
(250,184,o),
(250,164,cs),
(250,136,ls),
(250,116,o),
(234,100,o),
(214,100,cs),
(186,100,ls),
(166,100,o),
(150,116,o),
(150,136,cs)
);
}
);
width = 400;
}
);
unicode = 111;
},
{
glyphname = p;
lastChange = "2023-12-23 15:45:42 +0000";
layers = (
{
layerId = m01;
shapes = (
{
closed = 1;
nodes = (
(50,-64,ls),
(50,-84,o),
(66,-100,o),
(86,-100,cs),
(114,-100,ls),
(134,-100,o),
(150,-84,o),
(150,-64,cs),
(150,-36,ls),
(150,-16,o),
(166,0,o),
(186,0,cs),
(314,0,ls),
(334,0,o),
(350,16,o),
(350,36,cs),
(350,264,ls),
(350,284,o),
(334,300,o),
(314,300,cs),
(86,300,ls),
(66,300,o),
(50,284,o),
(50,264,cs)
);
},
{
closed = 1;
nodes = (
(150,164,ls),
(150,184,o),
(166,200,o),
(186,200,cs),
(214,200,ls),
(234,200,o),
(250,184,o),
(250,164,cs),
(250,136,ls),
(250,116,o),
(234,100,o),
(214,100,cs),
(186,100,ls),
(166,100,o),
(150,116,o),
(150,136,cs)
);
}
);
width = 400;
}
);
unicode = 112;
},
{
glyphname = q;
lastChange = "2023-12-23 15:45:47 +0000";
layers = (
{
layerId = m01;
shapes = (
{
closed = 1;
nodes = (
(351,-64,ls),
(351,-84,o),
(335,-100,o),
(315,-100,cs),
(287,-100,ls),
(267,-100,o),
(251,-84,o),
(251,-64,cs),
(251,-36,ls),
(251,-16,o),
(235,0,o),
(215,0,cs),
(86,0,ls),
(66,0,o),
(50,16,o),
(50,36,cs),
(50,264,ls),
(50,284,o),
(66,300,o),
(86,300,cs),
(315,300,ls),
(335,300,o),
(351,284,o),
(351,264,cs)
);
},
{
closed = 1;
nodes = (
(215,100,ls),
(235,100,o),
(251,116,o),
(251,136,cs),
(251,164,ls),
(251,184,o),
(235,200,o),
(215,200,cs),
(186,200,ls),
(166,200,o),
(150,184,o),
(150,164,cs),
(150,136,ls),
(150,116,o),
(166,100,o),
(186,100,cs)
);
}
);
width = 401;
}
);
unicode = 113;
},
{
glyphname = r;
lastChange = "2023-12-23 15:46:17 +0000";
layers = (
{
layerId = m01;
shapes = (
{
closed = 1;
nodes = (
(50,36,ls),
(50,16,o),
(66,0,o),
(86,0,cs),
(114,0,ls),
(134,0,o),
(150,16,o),
(150,36,cs),
(150,164,ls),
(150,184,o),
(166,200,o),
(186,200,cs),
(214,200,ls),
(234,200,o),
(250,184,o),
(250,164,cs),
(250,136,ls),
(250,116,o),
(266,100,o),
(286,100,cs),
(314,100,ls),
(334,100,o),
(350,116,o),
(350,136,cs),
(350,264,ls),
(350,284,o),
(334,300,o),
(314,300,cs),
(86,300,ls),
(66,300,o),
(50,284,o),
(50,264,cs)
);
}
);
width = 400;
}
);
unicode = 114;
},
{
glyphname = s;
lastChange = "2023-12-23 15:46:22 +0000";
layers = (
{
layerId = m01;
shapes = (
{
closed = 1;
nodes = (
(50,-64,ls),
(50,-84,o),
(66,-100,o),
(86,-100,cs),
(254,-100,ls),
(274,-100,o),
(290,-84,o),
(290,-64,cs),
(290,104,ls),
(290,124,o),
(274,140,o),
(254,140,cs),
(176,140,ls),
(156,140,o),
(140,156,o),
(140,176,cs),
(140,184,ls),
(140,204,o),
(156,220,o),
(176,220,cs),
(254,220,ls),
(274,220,o),
(290,236,o),
(290,256,cs),
(290,264,ls),
(290,284,o),
(274,300,o),
(254,300,cs),
(86,300,ls),
(66,300,o),
(50,284,o),
(50,264,cs),
(50,96,ls),
(50,76,o),
(66,60,o),
(86,60,cs),
(164,60,ls),
(184,60,o),
(200,44,o),
(200,24,cs),
(200,16,ls),
(200,-4,o),
(184,-20,o),
(164,-20,cs),
(86,-20,ls),
(66,-20,o),
(50,-36,o),
(50,-56,cs)
);
}
);
width = 340;
}
);
unicode = 115;
},
{
glyphname = t;
lastChange = "2023-12-23 16:05:39 +0000";
layers = (
{
layerId = m01;
shapes = (
{
closed = 1;
nodes = (
(214,0,ls),
(234,0,o),
(250,16,o),
(250,36,cs),
(250,64,ls),
(250,84,o),
(234,100,o),
(214,100,cs),
(187,100,ls),
(167,100,o),
(151,116,o),
(151,136,cs),
(151,205,ls),
(151,225,o),
(167,241,o),
(187,241,cs),
(214,241,ls),
(234,241,o),
(250,257,o),
(250,277,cs),
(250,305,ls),
(250,325,o),
(234,341,o),
(214,341,cs),
(187,341,ls),
(167,341,o),
(151,357,o),
(151,377,cs),
(151,414,ls),
(151,434,o),
(135,450,o),
(115,450,cs),
(86,450,ls),
(66,450,o),
(50,434,o),
(50,414,cs),
(50,36,ls),
(50,16,o),
(66,0,o),
(86,0,cs)
);
}
);
width = 280;
}
);
unicode = 116;
},
{
glyphname = u;
lastChange = "2023-12-23 15:48:50 +0000";
layers = (
{
layerId = m01;
shapes = (
{
closed = 1;
nodes = (
(386,301,ls),
(386,321,o),
(370,337,o),
(350,337,cs),
(310,337,ls),
(290,337,o),
(274,321,o),
(274,301,cs),
(274,148,ls),
(274,128,o),
(258,112,o),
(238,112,cs),
(198,112,ls),
(178,112,o),
(162,128,o),
(162,148,cs),
(162,188,ls),
(162,208,o),
(146,224,o),
(126,224,cs),
(86,224,ls),
(66,224,o),
(50,208,o),
(50,188,cs),
(50,36,ls),
(50,16,o),
(66,0,o),
(86,0,cs),
(350,0,ls),
(370,0,o),
(386,16,o),
(386,36,cs)
);
}
);
width = 436;
}
);
unicode = 117;
},
{
glyphname = v;
lastChange = "2023-12-23 15:52:31 +0000";
layers = (
{
layerId = m01;
shapes = (
{
closed = 1;
nodes = (
(386,263,ls),
(386,283,o),
(370,299,o),
(350,299,cs),
(310,299,ls),
(290,299,o),
(274,283,o),
(274,263,cs),
(274,148,ls),
(274,128,o),
(258,112,o),
(238,112,cs),
(198,112,ls),
(178,112,o),
(162,132,o),
(162,152,cs),
(162,264,ls),
(162,284,o),
(146,300,o),
(126,300,cs),
(86,300,ls),
(66,300,o),
(50,284,o),
(50,264,cs),
(50,36,ls),
(50,16,o),
(66,0,o),
(86,0,cs),
(350,0,ls),
(370,0,o),
(386,16,o),
(386,36,cs)
);
}
);
width = 436;
}
);
unicode = 118;
},
{
glyphname = w;
lastChange = "2023-12-23 16:20:27 +0000";
layers = (
{
layerId = m01;
shapes = (
{
closed = 0;
nodes = (
(386,112,l)
);
},
{
closed = 1;
nodes = (
(350,224,ls),
(370,224,o),
(386,208,o),
(386,188,cs),
(386,148,ls),
(386,128,o),
(402,112,o),
(422,112,cs),
(462,112,ls),
(482,112,o),
(498,128,o),
(498,148,cs),
(498,301,ls),
(498,321,o),
(514,337,o),
(534,337,cs),
(574,337,ls),
(594,337,o),
(610,321,o),
(610,301,cs),
(610,36,ls),
(610,16,o),
(594,0,o),
(574,0,cs),
(86,0,ls),
(66,0,o),
(50,16,o),
(50,36,cs),
(50,301,ls),
(50,321,o),
(66,337,o),
(86,337,cs),
(126,337,ls),
(146,337,o),
(162,321,o),
(162,301,cs),
(162,148,ls),
(162,128,o),
(178,112,o),
(198,112,cs),
(238,112,ls),
(258,112,o),
(274,128,o),
(274,148,cs),
(274,188,ls),
(274,208,o),
(290,224,o),
(310,224,cs)
);
}
);
width = 660;
}
);
unicode = 119;
},
{
glyphname = x;
lastChange = "2023-12-23 16:07:03 +0000";
layers = (
{
layerId = m01;
shapes = (
{
closed = 1;
nodes = (
(416,274,ls),
(416,289,o),
(397,302,o),
(373,302,cs),
(327,302,ls),
(303,302,o),
(284,289,o),
(284,274,cs),
(284,234,ls),
(284,219,o),
(266,207,o),
(242,207,cs),
(194,207,ls),
(170,207,o),
(152,219,o),
(152,234,cs),
(152,272,ls),
(152,287,o),
(133,299,o),
(109,299,cs),
(63,299,ls),
(39,299,o),
(20,287,o),
(20,272,cs),
(20,150,ls),
(20,134,o),
(39,123,o),
(63,123,cs),
(373,123,ls),
(397,123,o),
(416,134,o),
(416,150,cs)
);
},
{
closed = 1;
nodes = (
(412,-70,ls),
(412,-85,o),
(393,-98,o),
(369,-98,cs),
(323,-98,ls),
(299,-98,o),
(280,-85,o),
(280,-70,cs),
(280,-30,ls),
(280,-15,o),
(262,-3,o),
(238,-3,cs),
(190,-3,ls),
(166,-3,o),
(148,-15,o),
(148,-30,cs),
(148,-68,ls),
(148,-84,o),
(129,-95,o),
(105,-95,cs),
(59,-95,ls),
(35,-95,o),
(16,-84,o),
(16,-68,cs),
(16,54,ls),
(16,70,o),
(35,82,o),
(59,82,cs),
(369,82,ls),
(393,82,o),
(412,70,o),
(412,54,cs)
);
}
);
width = 436;
}
);
unicode = 120;
},
{
glyphname = y;
lastChange = "2023-12-23 16:01:33 +0000";
layers = (
{
layerId = m01;
shapes = (
{
closed = 1;
nodes = (
(263,136,ls),
(263,116,o),
(247,100,o),
(227,100,cs),
(199,100,ls),
(179,100,o),
(163,116,o),
(163,136,cs),
(163,164,ls),
(163,184,o),
(147,200,o),
(127,200,cs),
(99,200,ls),
(79,200,o),
(63,184,o),
(63,164,cs),
(63,36,ls),
(63,16,o),
(79,0,o),
(99,0,cs),
(227,0,ls),
(247,0,o),
(263,-16,o),
(263,-36,cs),
(263,-164,ls),
(263,-184,o),
(279,-200,o),
(299,-200,cs),
(327,-200,ls),
(347,-200,o),
(363,-184,o),
(363,-164,cs),
(363,264,ls),
(363,284,o),
(347,300,o),
(327,300,cs),
(299,300,ls),
(279,300,o),
(263,284,o),
(263,264,cs)
);
}
);
width = 436;
}
);
unicode = 121;
},
{
glyphname = z;
lastChange = "2023-12-23 15:37:04 +0000";
layers = (
{
layerId = m01;
shapes = (
{
closed = 1;
nodes = (
(50,236,ls),
(50,216,o),
(66,200,o),
(86,200,cs),
(171,200,ls),
(191,200,o),
(207,184,o),
(207,164,cs),
(207,136,ls),
(207,116,o),
(223,100,o),
(243,100,cs),
(351,100,ls),
(371,100,o),
(387,84,o),
(387,64,cs),
(387,-64,ls),
(387,-84,o),
(403,-100,o),
(423,-100,cs),
(471,-100,ls),
(491,-100,o),
(507,-84,o),
(507,-64,cs),
(507,164,ls),
(507,184,o),
(491,200,o),
(471,200,cs),
(386,200,ls),
(366,200,o),
(350,216,o),
(350,236,cs),
(350,264,ls),
(350,284,o),
(334,300,o),
(314,300,cs),
(86,300,ls),
(66,300,o),
(50,284,o),
(50,264,cs)
);
}
);
width = 557;
}
);
unicode = 122;
},
{
glyphname = period;
lastChange = "2023-12-23 16:13:14 +0000";
layers = (
{
layerId = m01;
shapes = (
{
closed = 1;
nodes = (
(25,35,ls),
(25,15,o),
(41,-1,o),
(61,-1,cs),
(89,-1,ls),
(109,-1,o),
(125,15,o),
(125,35,cs),
(125,63,ls),
(125,83,o),
(109,99,o),
(89,99,cs),
(61,99,ls),
(41,99,o),
(25,83,o),
(25,63,cs)
);
}
